<svg xmlns="http://www.w3.org/2000/svg" xmlns:xlink="http://www.w3.org/1999/xlink" width="500" zoomAndPan="magnify" viewBox="0 0 375 374.999991" height="500" preserveAspectRatio="xMidYMid meet" version="1.0"><defs><g/><clipPath id="9597d18baa"><path d="M 19.46875 22.4375 L 354.605469 22.4375 L 354.605469 357.578125 L 19.46875 357.578125 Z M 19.46875 22.4375 " clip-rule="nonzero"/></clipPath><clipPath id="b12738accc"><path d="M 187.039062 22.4375 C 94.492188 22.4375 19.46875 97.460938 19.46875 190.007812 C 19.46875 282.554688 94.492188 357.578125 187.039062 357.578125 C 279.582031 357.578125 354.605469 282.554688 354.605469 190.007812 C 354.605469 97.460938 279.582031 22.4375 187.039062 22.4375 Z M 187.039062 22.4375 " clip-rule="nonzero"/></clipPath><clipPath id="1707196c20"><path d="M 0.46875 0.4375 L 335.605469 0.4375 L 335.605469 335.578125 L 0.46875 335.578125 Z M 0.46875 0.4375 " clip-rule="nonzero"/></clipPath><clipPath id="772d3a703f"><path d="M 168.039062 0.4375 C 75.492188 0.4375 0.46875 75.460938 0.46875 168.007812 C 0.46875 260.554688 75.492188 335.578125 168.039062 335.578125 C 260.582031 335.578125 335.605469 260.554688 335.605469 168.007812 C 335.605469 75.460938 260.582031 0.4375 168.039062 0.4375 Z M 168.039062 0.4375 " clip-rule="nonzero"/></clipPath><clipPath id="587f1d7836"><rect x="0" width="336" y="0" height="336"/></clipPath><clipPath id="03c18acdb8"><path d="M 19.46875 22.4375 L 354.601562 22.4375 L 354.601562 357.570312 L 19.46875 357.570312 Z M 19.46875 22.4375 " clip-rule="nonzero"/></clipPath><clipPath id="6d9989191a"><path d="M 187.035156 22.4375 C 94.492188 22.4375 19.46875 97.460938 19.46875 190.003906 C 19.46875 282.550781 94.492188 357.570312 187.035156 357.570312 C 279.582031 357.570312 354.601562 282.550781 354.601562 190.003906 C 354.601562 97.460938 279.582031 22.4375 187.035156 22.4375 Z M 187.035156 22.4375 " clip-rule="nonzero"/></clipPath><clipPath id="b4cd9024fe"><path d="M 66.527344 70.246094 L 306.046875 70.246094 L 306.046875 309.769531 L 66.527344 309.769531 Z M 66.527344 70.246094 " clip-rule="nonzero"/></clipPath><clipPath id="263f037d47"><path d="M 186.289062 70.246094 C 120.144531 70.246094 66.527344 123.867188 66.527344 190.007812 C 66.527344 256.148438 120.144531 309.769531 186.289062 309.769531 C 252.429688 309.769531 306.046875 256.148438 306.046875 190.007812 C 306.046875 123.867188 252.429688 70.246094 186.289062 70.246094 Z M 186.289062 70.246094 " clip-rule="nonzero"/></clipPath><clipPath id="7237ec3b68"><path d="M 0.527344 0.246094 L 240.046875 0.246094 L 240.046875 239.769531 L 0.527344 239.769531 Z M 0.527344 0.246094 " clip-rule="nonzero"/></clipPath><clipPath id="f70a133a7d"><path d="M 120.289062 0.246094 C 54.144531 0.246094 0.527344 53.867188 0.527344 120.007812 C 0.527344 186.148438 54.144531 239.769531 120.289062 239.769531 C 186.429688 239.769531 240.046875 186.148438 240.046875 120.007812 C 240.046875 53.867188 186.429688 0.246094 120.289062 0.246094 Z M 120.289062 0.246094 " clip-rule="nonzero"/></clipPath><clipPath id="51fb132b92"><rect x="0" width="241" y="0" height="240"/></clipPath><clipPath id="c9405de838"><path d="M 66.527344 70.246094 L 305.777344 70.246094 L 305.777344 309.496094 L 66.527344 309.496094 Z M 66.527344 70.246094 " clip-rule="nonzero"/></clipPath><clipPath id="794df43c6b"><path d="M 186.289062 70.246094 C 120.144531 70.246094 66.527344 123.867188 66.527344 190.007812 C 66.527344 256.148438 120.144531 309.765625 186.289062 309.765625 C 252.429688 309.765625 306.046875 256.148438 306.046875 190.007812 C 306.046875 123.867188 252.429688 70.246094 186.289062 70.246094 Z M 186.289062 70.246094 " clip-rule="nonzero"/></clipPath><clipPath id="8f697b47eb"><path d="M 4.6875 176.664062 L 370.3125 176.664062 L 370.3125 210.875 L 4.6875 210.875 Z M 4.6875 176.664062 " clip-rule="nonzero"/></clipPath><clipPath id="af6c0ce14d"><path d="M 0.6875 0.664062 L 366.3125 0.664062 L 366.3125 34.875 L 0.6875 34.875 Z M 0.6875 0.664062 " clip-rule="nonzero"/></clipPath><clipPath id="27509a130d"><rect x="0" width="367" y="0" height="35"/></clipPath><clipPath id="5085bffc44"><path d="M 4.707031 176.664062 L 370.292969 176.664062 L 370.292969 210.871094 L 4.707031 210.871094 Z M 4.707031 176.664062 " clip-rule="nonzero"/></clipPath><clipPath id="87ba12054f"><path d="M 93.925781 212.183594 L 273.964844 212.183594 L 273.964844 324.683594 L 93.925781 324.683594 Z M 93.925781 212.183594 " clip-rule="nonzero"/></clipPath><clipPath id="dc89233118"><path d="M 0.925781 0.183594 L 180.964844 0.183594 L 180.964844 112.683594 L 0.925781 112.683594 Z M 0.925781 0.183594 " clip-rule="nonzero"/></clipPath><clipPath id="594edb62b9"><rect x="0" width="181" y="0" height="113"/></clipPath><clipPath id="c07959062d"><path d="M 62.027344 211.578125 L 99.882812 211.578125 L 99.882812 292.976562 L 62.027344 292.976562 Z M 62.027344 211.578125 " clip-rule="nonzero"/></clipPath><clipPath id="98480e82b9"><path d="M 0.0273438 0.578125 L 37.882812 0.578125 L 37.882812 81.976562 L 0.0273438 81.976562 Z M 0.0273438 0.578125 " clip-rule="nonzero"/></clipPath><clipPath id="f8a866bd4b"><rect x="0" width="38" y="0" height="82"/></clipPath><clipPath id="74d532f9a6"><path d="M 272.410156 211.578125 L 311.820312 211.578125 L 311.820312 292.976562 L 272.410156 292.976562 Z M 272.410156 211.578125 " clip-rule="nonzero"/></clipPath><clipPath id="0bfc30c1de"><path d="M 0.410156 0.578125 L 39.820312 0.578125 L 39.820312 81.976562 L 0.410156 81.976562 Z M 0.410156 0.578125 " clip-rule="nonzero"/></clipPath><clipPath id="8f3d2c70a2"><rect x="0" width="40" y="0" height="82"/></clipPath><clipPath id="b399cafe0f"><path d="M 151 238 L 290.433594 238 L 290.433594 292.984375 L 151 292.984375 Z M 151 238 " clip-rule="nonzero"/></clipPath><clipPath id="25f288a657"><rect x="0" width="314" y="0" height="135"/></clipPath></defs><g clip-path="url(#9597d18baa)"><g clip-path="url(#b12738accc)"><g transform="matrix(1, 0, 0, 1, 19, 22)"><g clip-path="url(#587f1d7836)"><g clip-path="url(#1707196c20)"><g clip-path="url(#772d3a703f)"><path fill="#2f2382" d="M 0.46875 0.4375 L 335.605469 0.4375 L 335.605469 335.578125 L 0.46875 335.578125 Z M 0.46875 0.4375 " fill-opacity="1" fill-rule="nonzero"/></g></g></g></g></g></g><g clip-path="url(#03c18acdb8)"><g clip-path="url(#6d9989191a)"><path stroke-linecap="butt" transform="matrix(0.75, 0, 0, 0.75, 19.46937, 22.438904)" fill="none" stroke-linejoin="miter" d="M 223.421064 -0.00187153 C 100.03043 -0.00187153 -0.000826162 100.029385 -0.000826162 223.420018 C -0.000826162 346.81586 100.03043 446.841908 223.421064 446.841908 C 346.816905 446.841908 446.842953 346.81586 446.842953 223.420018 C 446.842953 100.029385 346.816905 -0.00187153 223.421064 -0.00187153 Z M 223.421064 -0.00187153 " stroke="#ffffff" stroke-width="8" stroke-opacity="1" stroke-miterlimit="4"/></g></g><g clip-path="url(#b4cd9024fe)"><g clip-path="url(#263f037d47)"><g transform="matrix(1, 0, 0, 1, 66, 70)"><g clip-path="url(#51fb132b92)"><g clip-path="url(#7237ec3b68)"><g clip-path="url(#f70a133a7d)"><path fill="#2f2382" d="M 0.527344 0.246094 L 240.046875 0.246094 L 240.046875 239.769531 L 0.527344 239.769531 Z M 0.527344 0.246094 " fill-opacity="1" fill-rule="nonzero"/></g></g></g></g></g></g><g clip-path="url(#c9405de838)"><g clip-path="url(#794df43c6b)"><path stroke-linecap="butt" transform="matrix(0.75, 0, 0, 0.75, 66.527563, 70.247105)" fill="none" stroke-linejoin="miter" d="M 159.682009 -0.00134832 C 71.489295 -0.00134832 -0.000292775 71.493448 -0.000292775 159.680954 C -0.000292775 247.86846 71.489295 319.358048 159.682009 319.358048 C 247.869515 319.358048 319.359103 247.86846 319.359103 159.680954 C 319.359103 71.493448 247.869515 -0.00134832 159.682009 -0.00134832 Z M 159.682009 -0.00134832 " stroke="#ffffff" stroke-width="8" stroke-opacity="1" stroke-miterlimit="4"/></g></g><g clip-path="url(#8f697b47eb)"><g transform="matrix(1, 0, 0, 1, 4, 176)"><g clip-path="url(#27509a130d)"><g clip-path="url(#af6c0ce14d)"><path fill="#2f2382" d="M 0.6875 0.664062 L 366.3125 0.664062 L 366.3125 34.875 L 0.6875 34.875 Z M 0.6875 0.664062 " fill-opacity="1" fill-rule="nonzero"/></g></g></g></g><g clip-path="url(#5085bffc44)"><path stroke-linecap="butt" transform="matrix(0.75, 0, 0, 0.75, 4.705867, 176.664509)" fill="none" stroke-linejoin="miter" d="M 0.00155256 -0.000595599 L 487.44947 -0.000595599 L 487.44947 45.608779 L 0.00155256 45.608779 Z M 0.00155256 -0.000595599 " stroke="#ffffff" stroke-width="8" stroke-opacity="1" stroke-miterlimit="4"/></g><g clip-path="url(#87ba12054f)"><g transform="matrix(1, 0, 0, 1, 93, 212)"><g clip-path="url(#594edb62b9)"><g clip-path="url(#dc89233118)"><path fill="#2f2382" d="M 0.925781 0.183594 L 181.101562 0.183594 L 181.101562 112.683594 L 0.925781 112.683594 Z M 0.925781 0.183594 " fill-opacity="1" fill-rule="nonzero"/></g></g></g></g><g clip-path="url(#c07959062d)"><g transform="matrix(1, 0, 0, 1, 62, 211)"><g clip-path="url(#f8a866bd4b)"><g clip-path="url(#98480e82b9)"><path fill="#2f2382" d="M 0.0273438 0.578125 L 37.882812 0.578125 L 37.882812 81.90625 L 0.0273438 81.90625 Z M 0.0273438 0.578125 " fill-opacity="1" fill-rule="nonzero"/></g></g></g></g><g clip-path="url(#74d532f9a6)"><g transform="matrix(1, 0, 0, 1, 272, 211)"><g clip-path="url(#8f3d2c70a2)"><g clip-path="url(#0bfc30c1de)"><path fill="#2f2382" d="M 0.410156 0.578125 L 39.820312 0.578125 L 39.820312 82.007812 L 0.410156 82.007812 Z M 0.410156 0.578125 " fill-opacity="1" fill-rule="nonzero"/></g></g></g></g><g clip-path="url(#b399cafe0f)"><path fill="#ffffff" d="M 290.03125 278.851562 C 290.03125 281 288.917969 282.941406 287.101562 284.054688 C 282.515625 286.820312 277.230469 287.605469 271.984375 288.390625 C 257.65625 290.496094 243.242188 291.40625 228.789062 292.4375 C 221.234375 292.976562 213.636719 292.808594 206.078125 292.890625 C 201.867188 292.933594 197.695312 292.355469 193.691406 291.15625 C 191.75 290.578125 189.476562 290 189.765625 287.152344 C 190.015625 284.507812 192.078125 283.890625 194.226562 283.476562 C 197.984375 282.691406 201.699219 283.144531 205.375 284.136719 C 206.449219 284.425781 208.019531 285.046875 207.523438 286.492188 C 207.109375 287.6875 205.707031 287.316406 204.589844 287.109375 C 201.453125 286.449219 198.273438 285.953125 195.050781 286.160156 C 193.980469 286.242188 192.492188 286.203125 192.285156 287.441406 C 192.078125 288.804688 193.605469 288.886719 194.640625 289.175781 C 197.488281 289.917969 200.421875 290.207031 203.351562 290.25 C 221.152344 290.621094 238.867188 289.300781 256.582031 287.648438 C 264.140625 286.945312 271.777344 286.820312 279.128906 284.757812 C 279.996094 284.507812 280.90625 284.304688 281.730469 283.972656 C 288.132812 281.496094 289.785156 277.695312 286.769531 271.417969 C 283.136719 263.863281 276.488281 259.980469 268.765625 257.707031 C 266.824219 257.128906 260.710938 260.1875 259.679688 261.960938 C 259.597656 262.128906 259.515625 262.292969 259.390625 262.417969 C 258.6875 263.40625 258.277344 265.265625 256.707031 264.316406 C 255.054688 263.367188 256.582031 262.128906 257.121094 261.09375 C 257.699219 260.019531 258.8125 259.238281 258.316406 257.667969 C 257.988281 256.636719 258.855469 255.601562 259.804688 255.273438 C 262.28125 254.445312 263.066406 252.257812 264.550781 250.070312 C 263.023438 250.273438 262.40625 251.226562 261.703125 251.886719 C 258.730469 254.488281 255.839844 257.171875 252.90625 259.773438 C 251.957031 260.597656 251.007812 261.753906 249.605469 261.34375 C 247.910156 260.886719 248.363281 259.195312 248.199219 257.625 C 247.085938 258.699219 246.175781 259.566406 245.226562 260.394531 C 244.730469 260.804688 244.070312 261.382812 243.574219 261.300781 C 240.929688 260.886719 238.246094 261.507812 235.726562 261.175781 C 234.488281 261.011719 233.871094 261.054688 233.085938 261.714844 C 231.96875 262.664062 230.898438 263.738281 229.453125 264.109375 C 228.585938 264.355469 227.632812 264.523438 226.890625 263.65625 C 226.1875 262.828125 226.230469 261.960938 226.726562 261.09375 C 227.839844 259.113281 228.996094 257.171875 229.78125 254.816406 C 226.3125 257.378906 222.886719 259.980469 219.417969 262.539062 C 218.261719 263.40625 217.105469 264.6875 215.78125 264.933594 C 212.808594 265.429688 209.09375 266.585938 206.945312 265.554688 C 203.808594 264.066406 202.773438 266.050781 200.917969 266.917969 C 199.429688 267.621094 197.984375 268.445312 196.414062 268.980469 C 193.484375 269.933594 191.957031 268.445312 192.738281 265.390625 C 193.027344 264.273438 193.605469 263.242188 194.308594 261.550781 C 190.714844 263.984375 187.621094 266.132812 184.4375 268.238281 C 181.753906 270.015625 180.144531 269.683594 178.574219 267 C 175.1875 269.3125 171.925781 271.871094 167.960938 273.195312 C 160.242188 275.753906 157.144531 273.402344 158.050781 265.140625 C 156.605469 266.917969 155.410156 268.363281 154.167969 269.765625 C 153.714844 270.304688 153.054688 271.003906 152.3125 270.386719 C 151.691406 269.890625 151.941406 269.066406 152.3125 268.363281 C 153.632812 266.007812 155.65625 264.234375 157.472656 262.332031 C 161.890625 257.667969 166.601562 253.289062 172.050781 249.863281 C 173.414062 248.996094 174.859375 247.136719 176.800781 249.160156 C 176.964844 249.324219 177.789062 248.914062 178.285156 248.746094 C 179.566406 248.292969 180.847656 247.671875 182.167969 247.34375 C 186.296875 246.394531 188.445312 247.878906 189.066406 252.050781 C 190.179688 251.925781 191.046875 250.359375 192.285156 251.226562 C 193.234375 251.886719 192.160156 252.671875 192.121094 253.578125 C 194.019531 252.875 195.917969 252.175781 197.902344 252.09375 C 201.824219 251.886719 204.757812 249.945312 207.277344 247.136719 C 208.058594 246.269531 208.886719 245.359375 209.835938 244.660156 C 210.746094 243.957031 211.734375 242.179688 212.972656 243.585938 C 214.171875 244.988281 212.230469 245.734375 211.488281 246.601562 C 210.621094 247.632812 209.503906 248.457031 208.679688 249.902344 C 211.570312 249.53125 214.460938 249.160156 217.351562 248.746094 C 223.339844 247.878906 229.285156 246.929688 235.273438 246.105469 C 236.96875 245.855469 238.328125 245.238281 239.445312 243.710938 C 240.0625 242.882812 240.847656 242.265625 241.714844 241.726562 C 242.625 241.148438 243.699219 239.125 244.855469 240.28125 C 246.136719 241.5625 244.070312 242.097656 243.492188 242.964844 C 243.039062 243.625 242.046875 243.832031 242.003906 244.988281 C 249.480469 244.164062 256.914062 243.253906 264.386719 242.511719 C 267.238281 242.222656 270.042969 242.179688 271.945312 239.457031 C 272.273438 238.960938 273.019531 238.464844 273.636719 238.878906 C 274.835938 239.664062 273.101562 240.445312 273.472656 241.191406 C 274.792969 241.191406 276.074219 241.148438 277.355469 241.191406 C 278.261719 241.230469 279.046875 241.6875 278.921875 242.71875 C 278.839844 243.710938 278.054688 243.625 277.230469 243.503906 C 273.347656 243.007812 270.375 244.082031 268.597656 247.921875 C 267.609375 250.070312 265.996094 251.886719 264.636719 253.949219 C 266.492188 255.191406 268.0625 255.105469 269.382812 253.371094 C 270.707031 251.679688 273.265625 250.359375 271.199219 247.589844 C 270.910156 247.21875 270.789062 246.683594 271.117188 246.3125 C 271.53125 245.855469 272.191406 245.980469 272.6875 246.1875 C 274.585938 246.972656 274.585938 248.5 273.96875 250.070312 C 273.183594 252.050781 271.695312 253.578125 270.210938 255.480469 C 271.449219 255.972656 272.605469 256.429688 273.71875 256.882812 C 281.898438 260.1875 287.347656 265.925781 289.617188 274.558594 C 289.785156 275.753906 290.03125 277.652344 290.03125 278.851562 Z M 160.035156 268.527344 C 160.074219 270.839844 161.230469 271.667969 163.378906 271.089844 C 171.636719 268.941406 178.367188 264.441406 183.570312 257.667969 C 184.644531 256.261719 185.429688 254.695312 185.886719 253.042969 C 186.585938 250.441406 185.636719 249.367188 182.953125 249.78125 C 174.117188 251.140625 167.300781 255.683594 162.386719 263.035156 C 161.191406 264.769531 160.242188 266.667969 160.035156 268.527344 Z M 243.242188 258.453125 C 245.640625 256.882812 248.242188 255.519531 249.230469 252.585938 C 249.519531 251.761719 249.5625 250.851562 250.59375 250.894531 C 251.585938 250.9375 252.289062 251.515625 252.578125 252.546875 C 252.949219 253.867188 252.410156 255.105469 252.082031 256.925781 C 256.953125 252.671875 261.371094 248.789062 266.039062 244.699219 C 265.460938 244.578125 265.214844 244.453125 264.964844 244.492188 C 257.078125 245.402344 249.148438 246.351562 241.261719 247.179688 C 239.859375 247.34375 238.867188 247.796875 238.039062 248.914062 C 235.480469 252.382812 232.835938 255.769531 230.234375 259.195312 C 229.824219 259.730469 229.121094 260.226562 229.65625 261.261719 C 231.96875 260.105469 233.746094 258.285156 235.769531 256.800781 C 236.554688 256.222656 237.339844 254.941406 238.289062 255.5625 C 239.363281 256.304688 237.835938 257.214844 237.835938 258.164062 C 237.835938 258.328125 237.957031 258.453125 238.082031 258.699219 C 240.105469 258.164062 241.632812 256.925781 242.789062 255.230469 C 243.492188 254.199219 244.398438 252.917969 245.554688 253.949219 C 246.628906 254.941406 245.019531 255.769531 244.523438 256.59375 C 244.152344 257.296875 243.65625 257.832031 243.242188 258.453125 Z M 233.292969 248.789062 C 233.210938 248.625 233.125 248.5 233.003906 248.335938 C 225.527344 249.53125 218.054688 251.058594 210.539062 251.886719 C 206.367188 252.339844 203.433594 253.949219 201.289062 257.460938 C 200.007812 259.566406 198.316406 261.382812 196.871094 263.40625 C 196.125 264.441406 194.269531 265.679688 195.300781 266.710938 C 196.414062 267.824219 197.984375 266.214844 199.097656 265.390625 C 202.609375 262.746094 206.203125 260.226562 208.84375 256.59375 C 209.464844 255.769531 210.207031 254.074219 211.613281 255.105469 C 213.386719 256.46875 215.824219 255.355469 217.476562 256.925781 C 217.765625 257.214844 218.796875 256.675781 218.960938 257.625 C 219.085938 258.328125 218.550781 258.78125 218.09375 259.238281 C 217.1875 260.1875 215.535156 260.558594 215.246094 262.871094 C 221.605469 257.957031 227.429688 253.371094 233.292969 248.789062 Z M 198.976562 254.40625 C 194.96875 254.488281 189.269531 256.304688 188.238281 257.585938 C 185.886719 260.558594 183.117188 263.199219 181.09375 266.421875 C 181.300781 266.628906 181.507812 266.792969 181.753906 267 C 187.332031 262.953125 192.863281 258.863281 198.976562 254.40625 Z M 214.542969 258.574219 C 214.585938 257.832031 214.128906 257.667969 213.511719 257.707031 C 211.984375 257.75 207.855469 260.929688 207.441406 262.417969 C 207.191406 263.242188 207.277344 263.820312 208.390625 263.820312 C 210.167969 263.902344 214.503906 260.269531 214.542969 258.574219 Z M 214.542969 258.574219 " fill-opacity="1" fill-rule="nonzero"/></g><path fill="#ffffff" d="M 118.285156 250.109375 C 121.421875 250.605469 124.023438 250.5625 126.417969 251.515625 C 127.164062 251.804688 127.863281 251.429688 128.527344 251.101562 C 132.65625 249.078125 136.742188 247.09375 140.832031 245.070312 C 143.390625 243.792969 145.664062 242.058594 147.316406 239.664062 C 147.851562 238.835938 148.511719 238.011719 149.503906 238.589844 C 150.617188 239.25 150.207031 240.324219 149.75 241.273438 C 148.882812 242.964844 147.480469 244.121094 145.992188 245.238281 C 142.277344 247.960938 138.066406 249.78125 133.894531 251.636719 C 132.984375 252.050781 132.078125 252.464844 130.960938 252.960938 C 134.308594 254.609375 137.320312 256.261719 139.800781 258.824219 C 144.753906 263.984375 144.796875 269.726562 139.882812 274.886719 C 136.453125 278.519531 132.40625 281.082031 127.535156 282.15625 C 124.3125 282.855469 121.296875 282.484375 118.984375 279.84375 C 117.335938 277.984375 117.375 274.96875 118.902344 273.277344 C 119.523438 272.574219 120.308594 272.203125 121.09375 272.65625 C 121.960938 273.152344 121.421875 273.894531 121.132812 274.558594 C 119.851562 277.570312 120.226562 278.316406 123.445312 279.140625 C 128.113281 280.339844 131.910156 278.480469 135.132812 275.339844 C 138.4375 272.078125 140.417969 268.28125 139.179688 263.488281 C 137.691406 257.625 129.308594 253.414062 123.734375 255.683594 C 118.613281 257.792969 113.453125 259.566406 107.835938 259.527344 C 106.640625 259.527344 105.773438 260.019531 104.863281 260.765625 C 99.617188 264.933594 94.332031 269.023438 89.089844 273.152344 C 88.511719 273.605469 87.933594 274.0625 87.355469 274.472656 C 86.691406 274.929688 85.867188 275.09375 85.371094 274.390625 C 84.957031 273.855469 85.289062 273.152344 85.785156 272.699219 C 86.734375 271.832031 87.683594 270.964844 88.675781 270.136719 C 93.136719 266.464844 97.554688 262.789062 102.015625 259.113281 C 98.460938 255.808594 98.835938 253.828125 103.292969 251.761719 C 105.648438 250.6875 108.207031 250.273438 110.769531 250.359375 C 112.378906 250.398438 113.535156 249.820312 114.734375 248.828125 C 118.695312 245.402344 122.742188 242.097656 126.792969 238.796875 C 127.285156 238.382812 127.742188 237.929688 128.320312 237.640625 C 129.476562 237.0625 130.796875 236.277344 131.746094 237.640625 C 132.695312 239 131.292969 239.785156 130.425781 240.488281 C 126.585938 243.585938 122.660156 246.640625 118.285156 250.109375 Z M 123.609375 253 C 115.765625 251.679688 113.164062 252.546875 110.480469 257.089844 C 115.023438 256.757812 119.027344 255.273438 123.609375 253 Z M 109.652344 252.917969 C 107.21875 252.382812 105.359375 252.671875 103.664062 253.660156 C 102.796875 254.15625 101.683594 254.777344 102.59375 255.972656 C 103.292969 256.964844 104.328125 257.625 105.566406 256.429688 C 106.722656 255.273438 108.042969 254.28125 109.652344 252.917969 Z M 109.652344 252.917969 " fill-opacity="1" fill-rule="nonzero"/><path fill="#ffffff" d="M 147.398438 263.199219 C 148.59375 263.117188 148.71875 263.984375 148.71875 264.851562 C 148.71875 265.679688 148.71875 266.628906 147.519531 266.585938 C 146.449219 266.546875 145.871094 265.800781 145.871094 264.769531 C 145.871094 263.820312 146.363281 263.242188 147.398438 263.199219 Z M 147.398438 263.199219 " fill-opacity="1" fill-rule="nonzero"/><path fill="#ffffff" d="M 244.773438 250.730469 C 244.441406 251.058594 244.109375 251.347656 243.820312 251.71875 C 243.121094 252.628906 242.253906 252.917969 241.179688 252.628906 C 240.683594 252.503906 240.394531 252.050781 240.601562 251.597656 C 241.136719 250.523438 241.882812 249.53125 243.160156 249.324219 C 244.277344 249.117188 244.9375 249.613281 244.730469 250.851562 Z M 244.773438 250.730469 " fill-opacity="1" fill-rule="nonzero"/><path fill="#ffffff" d="M 244.730469 250.8125 C 244.9375 250.523438 245.101562 250.234375 245.308594 249.945312 C 245.929688 249.160156 246.546875 248.167969 247.664062 248.953125 C 248.53125 249.53125 247.828125 250.316406 247.414062 250.8125 C 246.589844 251.71875 245.597656 252.503906 244.730469 250.730469 C 244.773438 250.730469 244.730469 250.8125 244.730469 250.8125 Z M 244.730469 250.8125 " fill-opacity="1" fill-rule="nonzero"/><g transform="matrix(1, 0, 0, 1, 30, 24)"><g clip-path="url(#25f288a657)"><g fill="#ffffff" fill-opacity="1"><g transform="translate(36.92531, 128.145255)"><g><path d="M -32.53125 -17.40625 L -27.890625 -27.84375 C -26.492188 -30.988281 -24.703125 -33.195312 -22.515625 -34.46875 C -20.328125 -35.75 -17.722656 -35.71875 -14.703125 -34.375 C -11.335938 -32.875 -9.5625 -30.40625 -9.375 -26.96875 C -6.414062 -31.363281 -2.523438 -32.492188 2.296875 -30.359375 C 5.109375 -29.097656 6.9375 -27.109375 7.78125 -24.390625 C 8.625 -21.679688 8.285156 -18.617188 6.765625 -15.203125 L 1.09375 -2.4375 Z M -15.953125 -19.21875 L -15.6875 -19.828125 C -14.925781 -21.535156 -14.65625 -22.941406 -14.875 -24.046875 C -15.09375 -25.148438 -15.882812 -26.003906 -17.25 -26.609375 C -19.53125 -27.617188 -21.425781 -26.429688 -22.9375 -23.046875 L -23.203125 -22.4375 Z M -1.40625 -12.734375 L -0.34375 -15.125 C 1.320312 -18.875 0.90625 -21.304688 -1.59375 -22.421875 C -3.082031 -23.085938 -4.359375 -23.09375 -5.421875 -22.4375 C -6.492188 -21.789062 -7.445312 -20.53125 -8.28125 -18.65625 L -9.34375 -16.265625 Z M -1.40625 -12.734375 "/></g></g></g><g fill="#ffffff" fill-opacity="1"><g transform="translate(48.099405, 102.974273)"><g><path d="M -16.0625 -40.71875 L -10.078125 -36.4375 L -17.453125 -26.15625 L -11.515625 -21.890625 L -4.4375 -31.734375 L 1.53125 -27.4375 L -5.546875 -17.59375 L 0.46875 -13.28125 L 7.84375 -23.5625 L 13.828125 -19.265625 L 1.5625 -2.171875 L -28.328125 -23.625 Z M -16.0625 -40.71875 "/></g></g></g><g fill="#ffffff" fill-opacity="1"><g transform="translate(61.398228, 83.398868)"><g><path d="M -25.609375 -26.453125 L -18.109375 -33.203125 L -4.53125 -29.5625 L -6.703125 -43.46875 L 0.78125 -50.203125 L 4.296875 -26.046875 L 15.328125 -13.78125 L 9.078125 -8.171875 L -1.953125 -20.4375 Z M -25.609375 -26.453125 "/></g></g></g><g fill="#ffffff" fill-opacity="1"><g transform="translate(83.615382, 62.80081)"><g><path d="M 1.78125 -42.515625 L 32.046875 -16.84375 L 24.078125 -12.65625 L 18.25 -17.90625 L 5.859375 -11.390625 L 6.875 -3.609375 L -1.109375 0.578125 L -5.09375 -38.90625 Z M 12.296875 -23.09375 L 3.6875 -30.65625 L 3.609375 -30.609375 L 4.953125 -19.234375 Z M 12.296875 -23.09375 "/></g></g></g><g fill="#ffffff" fill-opacity="1"><g transform="translate(112.130034, 47.488529)"><g><path d="M 24.328125 -43.46875 L 13.265625 -10.671875 L 29.859375 -14.546875 L 31.53125 -7.375 L 0.703125 -0.15625 L 11.703125 -32.96875 L -3.5 -29.421875 L -5.171875 -36.578125 Z M 24.328125 -43.46875 "/></g></g></g><g fill="#ffffff" fill-opacity="1"><g transform="translate(143.85101, 40.87694)"><g/></g></g><g fill="#ffffff" fill-opacity="1"><g transform="translate(155.025755, 40.171797)"><g/></g></g><g fill="#ffffff" fill-opacity="1"><g transform="translate(166.218819, 40.466869)"><g/></g></g><g fill="#ffffff" fill-opacity="1"><g transform="translate(176.574522, 40.003235)"><g><path d="M 31.421875 10.390625 L 36.609375 -10.875 L 36.390625 -10.9375 L 22.46875 7.203125 L 17.71875 5.625 L 17.34375 -17.234375 L 17.140625 -17.296875 L 8.640625 2.859375 L 0.6875 0.21875 L 15.359375 -33.671875 L 23.828125 -30.875 L 24.921875 -8.15625 L 39.3125 -25.765625 L 47.796875 -22.953125 L 39.375 13.015625 Z M 31.421875 10.390625 "/></g></g></g><g fill="#ffffff" fill-opacity="1"><g transform="translate(213.842045, 52.42589)"><g><path d="M 38.4375 -18.203125 L 29.828125 20.515625 L 22.421875 15.40625 L 24.34375 7.8125 L 12.8125 -0.125 L 6.40625 4.40625 L -1.03125 -0.703125 L 32.046875 -22.609375 Z M 26.15625 0.125 L 28.859375 -11.015625 L 28.78125 -11.078125 L 19.328125 -4.578125 Z M 26.15625 0.125 "/></g></g></g><g fill="#ffffff" fill-opacity="1"><g transform="translate(240.629056, 70.691508)"><g><path d="M 29.359375 -22.34375 L 38.0625 -12.46875 C 40.40625 -9.8125 41.601562 -7.019531 41.65625 -4.09375 C 41.71875 -1.175781 40.429688 1.441406 37.796875 3.765625 C 35.773438 5.546875 33.628906 6.535156 31.359375 6.734375 C 29.097656 6.929688 26.921875 6.40625 24.828125 5.15625 L 21.796875 24.71875 L 14.75 16.71875 L 18.203125 -1.3125 L 7.3125 8.296875 L 1.765625 2 Z M 22.65625 -5.25 L 23.3125 -4.515625 C 23.820312 -3.929688 24.265625 -3.445312 24.640625 -3.0625 C 25.023438 -2.6875 25.507812 -2.300781 26.09375 -1.90625 C 26.675781 -1.507812 27.226562 -1.265625 27.75 -1.171875 C 28.28125 -1.078125 28.875 -1.125 29.53125 -1.3125 C 30.195312 -1.5 30.863281 -1.882812 31.53125 -2.46875 C 32.195312 -3.0625 32.664062 -3.675781 32.9375 -4.3125 C 33.21875 -4.957031 33.335938 -5.539062 33.296875 -6.0625 C 33.265625 -6.59375 33.09375 -7.171875 32.78125 -7.796875 C 32.46875 -8.429688 32.140625 -8.957031 31.796875 -9.375 C 31.460938 -9.789062 31.039062 -10.289062 30.53125 -10.875 L 29.875 -11.609375 Z M 22.65625 -5.25 "/></g></g></g><g fill="#ffffff" fill-opacity="1"><g transform="translate(260.217348, 92.958184)"><g><path d="M 25.890625 -14.015625 L 32.3125 -17.59375 L 44.890625 5 L 38.46875 8.578125 L 34.21875 0.953125 L 8.5 15.28125 L 4.421875 7.9375 L 30.140625 -6.390625 Z M 25.890625 -14.015625 "/></g></g></g><g fill="#ffffff" fill-opacity="1"><g transform="translate(272.044338, 114.933464)"><g><path d="M 38.34375 -2.609375 L 3.90625 10.359375 L 0.9375 2.5 L 35.375 -10.46875 Z M 38.34375 -2.609375 "/></g></g></g></g></g><g fill="#ffffff" fill-opacity="1"><g transform="translate(36.247496, 200.519869)"><g><path d="M 3.453125 -2.578125 L 13.488281 -2.578125 L 13.488281 0.847656 L 0.101562 0.847656 L 0.101562 -1.851562 L 9.054688 -14.800781 L 9.75 -14.316406 L 9.75 -13.46875 L 0.246094 -13.46875 L 0.246094 -16.90625 L 13.136719 -16.90625 L 13.136719 -14.242188 L 4.148438 -1.25 L 3.453125 -1.730469 Z M 1.835938 -0.882812 L 11.589844 -14.988281 L 12.289062 -14.503906 L 11.441406 -14.503906 L 11.441406 -16.058594 L 12.289062 -16.058594 L 12.289062 -15.214844 L 1.09375 -15.214844 L 1.09375 -16.058594 L 1.9375 -16.058594 L 1.9375 -14.316406 L 1.09375 -14.316406 L 1.09375 -15.164062 L 11.367188 -15.164062 L 1.644531 -1.105469 L 0.949219 -1.589844 L 1.796875 -1.589844 L 1.796875 0 L 0.949219 0 L 0.949219 -0.847656 L 12.640625 -0.847656 L 12.640625 0 L 11.792969 0 L 11.792969 -1.730469 L 12.640625 -1.730469 L 12.640625 -0.882812 Z M 1.835938 -0.882812 "/></g></g></g><g fill="#ffffff" fill-opacity="1"><g transform="translate(55.955513, 200.519869)"><g><path d="M 10.941406 -6.578125 L 3.980469 -6.578125 L 3.980469 -7.421875 L 4.828125 -7.421875 L 4.828125 -1.730469 L 3.980469 -1.730469 L 3.980469 -2.578125 L 12.914062 -2.578125 L 12.914062 0.847656 L 1.015625 0.847656 L 1.015625 -16.90625 L 12.804688 -16.90625 L 12.804688 -13.46875 L 3.980469 -13.46875 L 3.980469 -14.316406 L 4.828125 -14.316406 L 4.828125 -9.15625 L 3.980469 -9.15625 L 3.980469 -10.003906 L 11.789062 -10.003906 L 11.789062 -6.578125 Z M 10.941406 -8.269531 L 10.941406 -7.421875 L 10.09375 -7.421875 L 10.09375 -9.15625 L 10.941406 -9.15625 L 10.941406 -8.308594 L 3.136719 -8.308594 L 3.136719 -15.164062 L 11.957031 -15.164062 L 11.957031 -14.316406 L 11.109375 -14.316406 L 11.109375 -16.058594 L 11.957031 -16.058594 L 11.957031 -15.214844 L 1.863281 -15.214844 L 1.863281 -16.058594 L 2.710938 -16.058594 L 2.710938 0 L 1.863281 0 L 1.863281 -0.847656 L 12.066406 -0.847656 L 12.066406 0 L 11.21875 0 L 11.21875 -1.730469 L 12.066406 -1.730469 L 12.066406 -0.882812 L 3.136719 -0.882812 L 3.136719 -8.269531 Z M 10.941406 -8.269531 "/></g></g></g><g fill="#ffffff" fill-opacity="1"><g transform="translate(74.979896, 200.519869)"><g><path d="M 6.554688 -6.878906 L 4.59375 -4.839844 L 3.980469 -5.425781 L 4.828125 -5.425781 L 4.828125 0.847656 L 1.015625 0.847656 L 1.015625 -16.90625 L 4.828125 -16.90625 L 4.828125 -8.117188 L 3.980469 -8.117188 L 3.351562 -8.683594 L 10.742188 -16.90625 L 15.566406 -16.90625 L 7.988281 -8.402344 L 7.355469 -8.96875 L 8.03125 -9.480469 L 15.882812 0.847656 L 11.21875 0.847656 L 5.273438 -6.953125 L 5.945312 -7.46875 Z M 6.019531 -8.765625 L 12.3125 -0.511719 L 11.636719 0 L 11.636719 -0.847656 L 14.175781 -0.847656 L 14.175781 0 L 13.5 0.511719 L 6.261719 -9.011719 L 13.046875 -16.625 L 13.675781 -16.058594 L 13.675781 -15.214844 L 11.117188 -15.214844 L 11.117188 -16.058594 L 11.75 -15.492188 L 3.136719 -5.90625 L 3.136719 -16.058594 L 3.980469 -16.058594 L 3.980469 -15.214844 L 1.863281 -15.214844 L 1.863281 -16.058594 L 2.710938 -16.058594 L 2.710938 0 L 1.863281 0 L 1.863281 -0.847656 L 3.980469 -0.847656 L 3.980469 0 L 3.136719 0 L 3.136719 -5.769531 L 5.335938 -8.054688 Z M 6.019531 -8.765625 "/></g></g></g><g fill="#ffffff" fill-opacity="1"><g transform="translate(95.327444, 200.519869)"><g><path d="M 4.136719 0.847656 L 1.171875 0.847656 L 1.171875 -16.90625 L 4.984375 -16.90625 L 4.984375 0.847656 Z M 4.136719 -0.847656 L 4.136719 0 L 3.289062 0 L 3.289062 -16.058594 L 4.136719 -16.058594 L 4.136719 -15.214844 L 2.019531 -15.214844 L 2.019531 -16.058594 L 2.867188 -16.058594 L 2.867188 0 L 2.019531 0 L 2.019531 -0.847656 Z M 1.015625 -18.628906 C 1.015625 -19.175781 1.1875 -19.640625 1.535156 -20.03125 C 1.726562 -20.25 1.964844 -20.410156 2.242188 -20.515625 C 2.488281 -20.609375 2.765625 -20.65625 3.066406 -20.65625 C 3.714844 -20.65625 4.226562 -20.449219 4.597656 -20.035156 C 4.949219 -19.648438 5.125 -19.179688 5.125 -18.628906 C 5.125 -18.078125 4.949219 -17.609375 4.589844 -17.226562 C 4.21875 -16.824219 3.707031 -16.625 3.066406 -16.625 C 2.421875 -16.625 1.914062 -16.828125 1.542969 -17.230469 C 1.191406 -17.613281 1.015625 -18.078125 1.015625 -18.628906 Z M 2.710938 -18.628906 C 2.710938 -18.519531 2.738281 -18.433594 2.792969 -18.375 C 2.800781 -18.367188 2.816406 -18.359375 2.835938 -18.351562 C 2.890625 -18.328125 2.96875 -18.320312 3.066406 -18.320312 C 3.164062 -18.320312 3.242188 -18.328125 3.300781 -18.351562 C 3.324219 -18.359375 3.339844 -18.371094 3.351562 -18.382812 C 3.40625 -18.4375 3.433594 -18.523438 3.433594 -18.628906 C 3.433594 -18.742188 3.402344 -18.832031 3.34375 -18.902344 C 3.304688 -18.941406 3.210938 -18.964844 3.066406 -18.964844 C 2.921875 -18.964844 2.835938 -18.945312 2.800781 -18.90625 C 2.742188 -18.839844 2.710938 -18.746094 2.710938 -18.628906 Z M 2.710938 -18.628906 "/></g></g></g><g fill="#ffffff" fill-opacity="1"><g transform="translate(107.658818, 200.519869)"><g><path d="M -0.4375 -8.503906 L 6.636719 -8.503906 L 6.636719 -5.140625 L -0.4375 -5.140625 Z M -0.4375 -8.503906 "/></g></g></g><g fill="#ffffff" fill-opacity="1"><g transform="translate(120.078404, 200.519869)"><g><path d="M 14.519531 -4.996094 C 14.296875 -3.082031 13.574219 -1.59375 12.355469 -0.527344 C 11.140625 0.535156 9.550781 1.066406 7.589844 1.066406 C 6.519531 1.066406 5.550781 0.875 4.679688 0.484375 C 3.800781 0.0898438 3.035156 -0.496094 2.378906 -1.273438 C 1.101562 -2.792969 0.464844 -4.792969 0.464844 -7.28125 L 0.464844 -8.824219 C 0.464844 -10.441406 0.757812 -11.875 1.347656 -13.121094 C 1.949219 -14.40625 2.8125 -15.394531 3.933594 -16.089844 C 5.046875 -16.78125 6.328125 -17.128906 7.777344 -17.128906 C 9.703125 -17.128906 11.261719 -16.578125 12.453125 -15.472656 C 13.640625 -14.375 14.328125 -12.878906 14.519531 -10.984375 L 14.613281 -10.050781 L 10.816406 -10.050781 L 10.710938 -10.777344 C 10.554688 -11.859375 10.242188 -12.621094 9.773438 -13.058594 C 9.324219 -13.480469 8.65625 -13.691406 7.777344 -13.691406 C 7.226562 -13.691406 6.742188 -13.59375 6.328125 -13.398438 C 5.921875 -13.203125 5.566406 -12.914062 5.265625 -12.523438 C 4.613281 -11.671875 4.289062 -10.421875 4.289062 -8.769531 L 4.289062 -7.214844 C 4.289062 -5.652344 4.601562 -4.425781 5.226562 -3.542969 C 5.507812 -3.144531 5.839844 -2.847656 6.226562 -2.652344 C 6.613281 -2.457031 7.070312 -2.359375 7.589844 -2.359375 C 8.558594 -2.359375 9.277344 -2.558594 9.75 -2.957031 C 10.21875 -3.355469 10.539062 -4.109375 10.710938 -5.226562 L 10.824219 -5.941406 L 14.628906 -5.941406 Z M 12.835938 -5.195312 L 13.675781 -5.097656 L 13.675781 -4.25 L 11.546875 -4.25 L 11.546875 -5.097656 L 12.386719 -4.964844 C 12.148438 -3.433594 11.632812 -2.332031 10.84375 -1.664062 C 10.058594 -0.996094 8.972656 -0.664062 7.589844 -0.664062 C 6.800781 -0.664062 6.089844 -0.824219 5.460938 -1.140625 C 4.828125 -1.460938 4.285156 -1.9375 3.839844 -2.566406 C 3.011719 -3.742188 2.59375 -5.292969 2.59375 -7.214844 L 2.59375 -8.769531 C 2.59375 -10.808594 3.035156 -12.402344 3.921875 -13.554688 C 4.390625 -14.164062 4.949219 -14.621094 5.605469 -14.929688 C 6.25 -15.234375 6.972656 -15.386719 7.777344 -15.386719 C 9.101562 -15.386719 10.152344 -15.023438 10.929688 -14.296875 C 11.6875 -13.585938 12.175781 -12.496094 12.386719 -11.019531 L 11.546875 -10.898438 L 11.546875 -11.746094 L 13.675781 -11.746094 L 13.675781 -10.898438 L 12.835938 -10.8125 C 12.6875 -12.285156 12.175781 -13.421875 11.304688 -14.230469 C 10.4375 -15.03125 9.261719 -15.433594 7.777344 -15.433594 C 6.652344 -15.433594 5.667969 -15.171875 4.824219 -14.652344 C 3.988281 -14.132812 3.339844 -13.382812 2.878906 -12.402344 C 2.398438 -11.382812 2.160156 -10.191406 2.160156 -8.824219 L 2.160156 -7.28125 C 2.160156 -5.207031 2.664062 -3.566406 3.675781 -2.363281 C 4.164062 -1.785156 4.730469 -1.351562 5.371094 -1.0625 C 6.023438 -0.773438 6.761719 -0.625 7.589844 -0.625 C 9.125 -0.625 10.34375 -1.019531 11.238281 -1.800781 C 12.128906 -2.582031 12.664062 -3.710938 12.835938 -5.195312 Z M 9.109375 0.289062 L 8.976562 0.863281 L 8.152344 0.671875 L 8.296875 -0.160156 C 9.054688 -0.0273438 9.640625 0.273438 10.050781 0.738281 C 10.476562 1.214844 10.6875 1.832031 10.6875 2.582031 C 10.6875 3.074219 10.582031 3.527344 10.371094 3.929688 C 10.160156 4.335938 9.851562 4.679688 9.445312 4.964844 C 8.710938 5.484375 7.726562 5.746094 6.496094 5.746094 L 5.703125 5.746094 L 5.515625 2.871094 L 6.417969 2.871094 C 6.84375 2.871094 7.148438 2.816406 7.335938 2.703125 C 7.375 2.679688 7.394531 2.664062 7.402344 2.652344 C 7.402344 2.652344 7.402344 2.65625 7.402344 2.65625 C 7.402344 2.648438 7.402344 2.640625 7.402344 2.625 C 7.402344 2.601562 7.402344 2.585938 7.398438 2.570312 C 7.398438 2.570312 7.402344 2.574219 7.402344 2.578125 C 7.410156 2.597656 7.421875 2.609375 7.433594 2.617188 C 7.425781 2.613281 7.410156 2.605469 7.382812 2.59375 C 7.324219 2.574219 7.257812 2.554688 7.171875 2.535156 C 6.96875 2.488281 6.707031 2.449219 6.386719 2.421875 L 5.414062 2.332031 L 6.148438 -0.746094 L 9.347656 -0.746094 Z M 7.457031 -0.0898438 L 8.285156 0.0976562 L 8.285156 0.945312 L 6.816406 0.945312 L 6.816406 0.0976562 L 7.640625 0.296875 L 7.289062 1.773438 L 6.464844 1.578125 L 6.542969 0.734375 C 6.941406 0.769531 7.277344 0.820312 7.554688 0.882812 C 7.890625 0.960938 8.160156 1.066406 8.363281 1.199219 C 8.609375 1.363281 8.796875 1.570312 8.921875 1.828125 C 9.039062 2.066406 9.097656 2.332031 9.097656 2.625 C 9.097656 2.953125 9.019531 3.25 8.859375 3.519531 C 8.707031 3.777344 8.488281 3.988281 8.207031 4.15625 C 7.75 4.429688 7.15625 4.5625 6.417969 4.5625 L 6.417969 3.71875 L 7.265625 3.660156 L 7.34375 4.84375 L 6.496094 4.898438 L 6.496094 4.050781 C 7.367188 4.050781 8.027344 3.894531 8.46875 3.582031 C 8.648438 3.453125 8.785156 3.308594 8.867188 3.148438 C 8.949219 2.988281 8.992188 2.800781 8.992188 2.582031 C 8.992188 2.257812 8.921875 2.019531 8.78125 1.859375 C 8.632812 1.691406 8.371094 1.570312 8.003906 1.507812 L 7.125 1.351562 Z M 7.457031 -0.0898438 "/></g></g></g><g fill="#ffffff" fill-opacity="1"><g transform="translate(140.96625, 200.519869)"><g><path d="M 10.941406 -6.578125 L 3.980469 -6.578125 L 3.980469 -7.421875 L 4.828125 -7.421875 L 4.828125 -1.730469 L 3.980469 -1.730469 L 3.980469 -2.578125 L 12.914062 -2.578125 L 12.914062 0.847656 L 1.015625 0.847656 L 1.015625 -16.90625 L 12.804688 -16.90625 L 12.804688 -13.46875 L 3.980469 -13.46875 L 3.980469 -14.316406 L 4.828125 -14.316406 L 4.828125 -9.15625 L 3.980469 -9.15625 L 3.980469 -10.003906 L 11.789062 -10.003906 L 11.789062 -6.578125 Z M 10.941406 -8.269531 L 10.941406 -7.421875 L 10.09375 -7.421875 L 10.09375 -9.15625 L 10.941406 -9.15625 L 10.941406 -8.308594 L 3.136719 -8.308594 L 3.136719 -15.164062 L 11.957031 -15.164062 L 11.957031 -14.316406 L 11.109375 -14.316406 L 11.109375 -16.058594 L 11.957031 -16.058594 L 11.957031 -15.214844 L 1.863281 -15.214844 L 1.863281 -16.058594 L 2.710938 -16.058594 L 2.710938 0 L 1.863281 0 L 1.863281 -0.847656 L 12.066406 -0.847656 L 12.066406 0 L 11.21875 0 L 11.21875 -1.730469 L 12.066406 -1.730469 L 12.066406 -0.882812 L 3.136719 -0.882812 L 3.136719 -8.269531 Z M 10.941406 -8.269531 "/></g></g></g><g fill="#ffffff" fill-opacity="1"><g transform="translate(159.990633, 200.519869)"><g><path d="M 6.378906 -3.089844 L 11.167969 -16.90625 L 15.304688 -16.90625 L 8.71875 0.847656 L 5.664062 0.847656 L -0.90625 -16.90625 L 3.21875 -16.90625 L 7.980469 -3.089844 L 7.179688 -2.8125 Z M 7.179688 -0.21875 L 1.8125 -15.785156 L 2.613281 -16.058594 L 2.613281 -15.214844 L 0.308594 -15.214844 L 0.308594 -16.058594 L 1.101562 -16.355469 L 7.046875 -0.292969 L 6.253906 0 L 6.253906 -0.847656 L 8.128906 -0.847656 L 8.128906 0 L 7.335938 -0.292969 L 13.292969 -16.355469 L 14.085938 -16.058594 L 14.085938 -15.214844 L 11.769531 -15.214844 L 11.769531 -16.058594 L 12.570312 -15.78125 L 7.980469 -2.535156 Z M 7.179688 -0.21875 "/></g></g></g><g fill="#ffffff" fill-opacity="1"><g transform="translate(180.547688, 200.519869)"><g><path d="M 4.136719 0.847656 L 1.171875 0.847656 L 1.171875 -16.90625 L 4.984375 -16.90625 L 4.984375 0.847656 Z M 4.136719 -0.847656 L 4.136719 0 L 3.289062 0 L 3.289062 -16.058594 L 4.136719 -16.058594 L 4.136719 -15.214844 L 2.019531 -15.214844 L 2.019531 -16.058594 L 2.867188 -16.058594 L 2.867188 0 L 2.019531 0 L 2.019531 -0.847656 Z M 1.015625 -18.628906 C 1.015625 -19.175781 1.1875 -19.640625 1.535156 -20.03125 C 1.726562 -20.25 1.964844 -20.410156 2.242188 -20.515625 C 2.488281 -20.609375 2.765625 -20.65625 3.066406 -20.65625 C 3.714844 -20.65625 4.226562 -20.449219 4.597656 -20.035156 C 4.949219 -19.648438 5.125 -19.179688 5.125 -18.628906 C 5.125 -18.078125 4.949219 -17.609375 4.589844 -17.226562 C 4.21875 -16.824219 3.707031 -16.625 3.066406 -16.625 C 2.421875 -16.625 1.914062 -16.828125 1.542969 -17.230469 C 1.191406 -17.613281 1.015625 -18.078125 1.015625 -18.628906 Z M 2.710938 -18.628906 C 2.710938 -18.519531 2.738281 -18.433594 2.792969 -18.375 C 2.800781 -18.367188 2.816406 -18.359375 2.835938 -18.351562 C 2.890625 -18.328125 2.96875 -18.320312 3.066406 -18.320312 C 3.164062 -18.320312 3.242188 -18.328125 3.300781 -18.351562 C 3.324219 -18.359375 3.339844 -18.371094 3.351562 -18.382812 C 3.40625 -18.4375 3.433594 -18.523438 3.433594 -18.628906 C 3.433594 -18.742188 3.402344 -18.832031 3.34375 -18.902344 C 3.304688 -18.941406 3.210938 -18.964844 3.066406 -18.964844 C 2.921875 -18.964844 2.835938 -18.945312 2.800781 -18.90625 C 2.742188 -18.839844 2.710938 -18.746094 2.710938 -18.628906 Z M 2.710938 -18.628906 "/></g></g></g><g fill="#ffffff" fill-opacity="1"><g transform="translate(192.879063, 200.519869)"><g><path d="M 6.554688 -6.878906 L 4.59375 -4.839844 L 3.980469 -5.425781 L 4.828125 -5.425781 L 4.828125 0.847656 L 1.015625 0.847656 L 1.015625 -16.90625 L 4.828125 -16.90625 L 4.828125 -8.117188 L 3.980469 -8.117188 L 3.351562 -8.683594 L 10.742188 -16.90625 L 15.566406 -16.90625 L 7.988281 -8.402344 L 7.355469 -8.96875 L 8.03125 -9.480469 L 15.882812 0.847656 L 11.21875 0.847656 L 5.273438 -6.953125 L 5.945312 -7.46875 Z M 6.019531 -8.765625 L 12.3125 -0.511719 L 11.636719 0 L 11.636719 -0.847656 L 14.175781 -0.847656 L 14.175781 0 L 13.5 0.511719 L 6.261719 -9.011719 L 13.046875 -16.625 L 13.675781 -16.058594 L 13.675781 -15.214844 L 11.117188 -15.214844 L 11.117188 -16.058594 L 11.75 -15.492188 L 3.136719 -5.90625 L 3.136719 -16.058594 L 3.980469 -16.058594 L 3.980469 -15.214844 L 1.863281 -15.214844 L 1.863281 -16.058594 L 2.710938 -16.058594 L 2.710938 0 L 1.863281 0 L 1.863281 -0.847656 L 3.980469 -0.847656 L 3.980469 0 L 3.136719 0 L 3.136719 -5.769531 L 5.335938 -8.054688 Z M 6.019531 -8.765625 "/></g></g></g><g fill="#ffffff" fill-opacity="1"><g transform="translate(213.226611, 200.519869)"><g><path d="M -0.4375 -8.503906 L 6.636719 -8.503906 L 6.636719 -5.140625 L -0.4375 -5.140625 Z M -0.4375 -8.503906 "/></g></g></g><g fill="#ffffff" fill-opacity="1"><g transform="translate(225.646196, 200.519869)"><g><path d="M 10.734375 -3.34375 L 4.003906 -3.34375 L 4.003906 -4.191406 L 4.800781 -3.902344 L 3.089844 0.847656 L -0.921875 0.847656 L 5.859375 -16.90625 L 8.878906 -16.90625 L 15.667969 0.847656 L 11.671875 0.847656 L 9.9375 -3.902344 L 10.734375 -4.191406 Z M 11.324219 -5.039062 L 13.0625 -0.289062 L 12.265625 0 L 12.265625 -0.847656 L 14.4375 -0.847656 L 14.4375 0 L 13.648438 0.300781 L 7.503906 -15.757812 L 8.292969 -16.058594 L 8.292969 -15.214844 L 6.441406 -15.214844 L 6.441406 -16.058594 L 7.234375 -15.757812 L 1.101562 0.300781 L 0.308594 0 L 0.308594 -0.847656 L 2.492188 -0.847656 L 2.492188 0 L 1.695312 -0.289062 L 3.410156 -5.039062 Z M 4.644531 -6.78125 L 10.105469 -6.78125 L 10.105469 -5.933594 L 9.308594 -5.644531 L 6.570312 -13.15625 L 7.367188 -13.445312 L 8.164062 -13.15625 L 5.441406 -5.644531 L 4.644531 -5.933594 Z M 3.433594 -5.085938 L 7.367188 -15.925781 L 11.3125 -5.085938 Z M 3.433594 -5.085938 "/></g></g></g><g fill="#ffffff" fill-opacity="1"><g transform="translate(246.567116, 200.519869)"><g><path d="M 14.207031 0.847656 L 11.230469 0.847656 L 11.230469 -7.421875 L 12.078125 -7.421875 L 12.078125 -6.578125 L 3.980469 -6.578125 L 3.980469 -7.421875 L 4.828125 -7.421875 L 4.828125 0.847656 L 1.015625 0.847656 L 1.015625 -16.90625 L 4.828125 -16.90625 L 4.828125 -9.15625 L 3.980469 -9.15625 L 3.980469 -10.003906 L 12.078125 -10.003906 L 12.078125 -9.15625 L 11.230469 -9.15625 L 11.230469 -16.90625 L 15.054688 -16.90625 L 15.054688 0.847656 Z M 14.207031 -0.847656 L 14.207031 0 L 13.359375 0 L 13.359375 -16.058594 L 14.207031 -16.058594 L 14.207031 -15.214844 L 12.078125 -15.214844 L 12.078125 -16.058594 L 12.925781 -16.058594 L 12.925781 -8.308594 L 3.136719 -8.308594 L 3.136719 -16.058594 L 3.980469 -16.058594 L 3.980469 -15.214844 L 1.863281 -15.214844 L 1.863281 -16.058594 L 2.710938 -16.058594 L 2.710938 0 L 1.863281 0 L 1.863281 -0.847656 L 3.980469 -0.847656 L 3.980469 0 L 3.136719 0 L 3.136719 -8.269531 L 12.925781 -8.269531 L 12.925781 0 L 12.078125 0 L 12.078125 -0.847656 Z M 14.207031 -0.847656 "/></g></g></g><g fill="#ffffff" fill-opacity="1"><g transform="translate(268.855307, 200.519869)"><g><path d="M 3.992188 -2.578125 L 12.449219 -2.578125 L 12.449219 0.847656 L 1.015625 0.847656 L 1.015625 -16.90625 L 4.839844 -16.90625 L 4.839844 -1.730469 L 3.992188 -1.730469 Z M 3.144531 -0.882812 L 3.144531 -16.058594 L 3.992188 -16.058594 L 3.992188 -15.214844 L 1.863281 -15.214844 L 1.863281 -16.058594 L 2.710938 -16.058594 L 2.710938 0 L 1.863281 0 L 1.863281 -0.847656 L 11.605469 -0.847656 L 11.605469 0 L 10.757812 0 L 10.757812 -1.730469 L 11.605469 -1.730469 L 11.605469 -0.882812 Z M 3.144531 -0.882812 "/></g></g></g><g fill="#ffffff" fill-opacity="1"><g transform="translate(287.196042, 200.519869)"><g><path d="M 10.734375 -3.34375 L 4.003906 -3.34375 L 4.003906 -4.191406 L 4.800781 -3.902344 L 3.089844 0.847656 L -0.921875 0.847656 L 5.859375 -16.90625 L 8.878906 -16.90625 L 15.667969 0.847656 L 11.671875 0.847656 L 9.9375 -3.902344 L 10.734375 -4.191406 Z M 11.324219 -5.039062 L 13.0625 -0.289062 L 12.265625 0 L 12.265625 -0.847656 L 14.4375 -0.847656 L 14.4375 0 L 13.648438 0.300781 L 7.503906 -15.757812 L 8.292969 -16.058594 L 8.292969 -15.214844 L 6.441406 -15.214844 L 6.441406 -16.058594 L 7.234375 -15.757812 L 1.101562 0.300781 L 0.308594 0 L 0.308594 -0.847656 L 2.492188 -0.847656 L 2.492188 0 L 1.695312 -0.289062 L 3.410156 -5.039062 Z M 4.644531 -6.78125 L 10.105469 -6.78125 L 10.105469 -5.933594 L 9.308594 -5.644531 L 6.570312 -13.15625 L 7.367188 -13.445312 L 8.164062 -13.15625 L 5.441406 -5.644531 L 4.644531 -5.933594 Z M 3.433594 -5.085938 L 7.367188 -15.925781 L 11.3125 -5.085938 Z M 3.433594 -5.085938 "/></g></g></g><g fill="#ffffff" fill-opacity="1"><g transform="translate(308.116985, 200.519869)"><g><path d="M 6.554688 -6.878906 L 4.59375 -4.839844 L 3.980469 -5.425781 L 4.828125 -5.425781 L 4.828125 0.847656 L 1.015625 0.847656 L 1.015625 -16.90625 L 4.828125 -16.90625 L 4.828125 -8.117188 L 3.980469 -8.117188 L 3.351562 -8.683594 L 10.742188 -16.90625 L 15.566406 -16.90625 L 7.988281 -8.402344 L 7.355469 -8.96875 L 8.03125 -9.480469 L 15.882812 0.847656 L 11.21875 0.847656 L 5.273438 -6.953125 L 5.945312 -7.46875 Z M 6.019531 -8.765625 L 12.3125 -0.511719 L 11.636719 0 L 11.636719 -0.847656 L 14.175781 -0.847656 L 14.175781 0 L 13.5 0.511719 L 6.261719 -9.011719 L 13.046875 -16.625 L 13.675781 -16.058594 L 13.675781 -15.214844 L 11.117188 -15.214844 L 11.117188 -16.058594 L 11.75 -15.492188 L 3.136719 -5.90625 L 3.136719 -16.058594 L 3.980469 -16.058594 L 3.980469 -15.214844 L 1.863281 -15.214844 L 1.863281 -16.058594 L 2.710938 -16.058594 L 2.710938 0 L 1.863281 0 L 1.863281 -0.847656 L 3.980469 -0.847656 L 3.980469 0 L 3.136719 0 L 3.136719 -5.769531 L 5.335938 -8.054688 Z M 6.019531 -8.765625 "/></g></g></g><g fill="#ffffff" fill-opacity="1"><g transform="translate(328.464533, 200.519869)"><g><path d="M 3.992188 -2.578125 L 12.449219 -2.578125 L 12.449219 0.847656 L 1.015625 0.847656 L 1.015625 -16.90625 L 4.839844 -16.90625 L 4.839844 -1.730469 L 3.992188 -1.730469 Z M 3.144531 -0.882812 L 3.144531 -16.058594 L 3.992188 -16.058594 L 3.992188 -15.214844 L 1.863281 -15.214844 L 1.863281 -16.058594 L 2.710938 -16.058594 L 2.710938 0 L 1.863281 0 L 1.863281 -0.847656 L 11.605469 -0.847656 L 11.605469 0 L 10.757812 0 L 10.757812 -1.730469 L 11.605469 -1.730469 L 11.605469 -0.882812 Z M 3.144531 -0.882812 "/></g></g></g><g fill="#ffffff" fill-opacity="1"><g transform="translate(346.805268, 200.519869)"><g><path d="M 1.171875 -16.90625 L 4.984375 -16.90625 L 4.984375 0.847656 L 1.171875 0.847656 Z M 2.867188 -15.214844 L 2.867188 -0.847656 L 3.289062 -0.847656 L 3.289062 -15.214844 Z M 2.867188 -15.214844 "/></g></g></g><g fill="#ffffff" fill-opacity="1"><g transform="translate(36.247496, 200.519869)"><g><path d="M 3.453125 -1.734375 L 12.640625 -1.734375 L 12.640625 0 L 0.953125 0 L 0.953125 -1.59375 L 9.75 -14.3125 L 1.09375 -14.3125 L 1.09375 -16.0625 L 12.296875 -16.0625 L 12.296875 -14.5 Z M 3.453125 -1.734375 "/></g></g></g><g fill="#ffffff" fill-opacity="1"><g transform="translate(55.955513, 200.519869)"><g><path d="M 10.9375 -7.421875 L 3.984375 -7.421875 L 3.984375 -1.734375 L 12.0625 -1.734375 L 12.0625 0 L 1.859375 0 L 1.859375 -16.0625 L 11.953125 -16.0625 L 11.953125 -14.3125 L 3.984375 -14.3125 L 3.984375 -9.15625 L 10.9375 -9.15625 Z M 10.9375 -7.421875 "/></g></g></g><g fill="#ffffff" fill-opacity="1"><g transform="translate(74.979896, 200.519869)"><g><path d="M 5.953125 -7.46875 L 3.984375 -5.421875 L 3.984375 0 L 1.859375 0 L 1.859375 -16.0625 L 3.984375 -16.0625 L 3.984375 -8.125 L 11.125 -16.0625 L 13.6875 -16.0625 L 7.359375 -8.96875 L 14.171875 0 L 11.640625 0 Z M 5.953125 -7.46875 "/></g></g></g><g fill="#ffffff" fill-opacity="1"><g transform="translate(95.327444, 200.519869)"><g><path d="M 4.140625 0 L 2.015625 0 L 2.015625 -16.0625 L 4.140625 -16.0625 Z M 1.875 -18.625 C 1.875 -18.957031 1.972656 -19.238281 2.171875 -19.46875 C 2.367188 -19.695312 2.664062 -19.8125 3.0625 -19.8125 C 3.46875 -19.8125 3.769531 -19.695312 3.96875 -19.46875 C 4.175781 -19.238281 4.28125 -18.957031 4.28125 -18.625 C 4.28125 -18.289062 4.175781 -18.015625 3.96875 -17.796875 C 3.769531 -17.578125 3.46875 -17.46875 3.0625 -17.46875 C 2.664062 -17.46875 2.367188 -17.578125 2.171875 -17.796875 C 1.972656 -18.015625 1.875 -18.289062 1.875 -18.625 Z M 1.875 -18.625 "/></g></g></g><g fill="#ffffff" fill-opacity="1"><g transform="translate(107.658818, 200.519869)"><g><path d="M 5.796875 -5.984375 L 0.40625 -5.984375 L 0.40625 -7.65625 L 5.796875 -7.65625 Z M 5.796875 -5.984375 "/></g></g></g><g fill="#ffffff" fill-opacity="1"><g transform="translate(120.078404, 200.519869)"><g><path d="M 13.6875 -5.09375 C 13.476562 -3.394531 12.847656 -2.082031 11.796875 -1.15625 C 10.742188 -0.238281 9.34375 0.21875 7.59375 0.21875 C 5.695312 0.21875 4.175781 -0.457031 3.03125 -1.8125 C 1.882812 -3.175781 1.3125 -5 1.3125 -7.28125 L 1.3125 -8.828125 C 1.3125 -10.316406 1.578125 -11.628906 2.109375 -12.765625 C 2.640625 -13.898438 3.394531 -14.769531 4.375 -15.375 C 5.351562 -15.976562 6.488281 -16.28125 7.78125 -16.28125 C 9.488281 -16.28125 10.851562 -15.800781 11.875 -14.84375 C 12.90625 -13.894531 13.507812 -12.582031 13.6875 -10.90625 L 11.546875 -10.90625 C 11.367188 -12.175781 10.972656 -13.097656 10.359375 -13.671875 C 9.742188 -14.253906 8.882812 -14.546875 7.78125 -14.546875 C 6.425781 -14.546875 5.363281 -14.046875 4.59375 -13.046875 C 3.820312 -12.046875 3.4375 -10.617188 3.4375 -8.765625 L 3.4375 -7.21875 C 3.4375 -5.46875 3.800781 -4.078125 4.53125 -3.046875 C 5.257812 -2.023438 6.28125 -1.515625 7.59375 -1.515625 C 8.769531 -1.515625 9.671875 -1.78125 10.296875 -2.3125 C 10.921875 -2.84375 11.335938 -3.769531 11.546875 -5.09375 Z M 8.28125 0.09375 L 8.15625 0.671875 C 9.28125 0.867188 9.84375 1.503906 9.84375 2.578125 C 9.84375 3.285156 9.546875 3.847656 8.953125 4.265625 C 8.367188 4.679688 7.550781 4.890625 6.5 4.890625 L 6.421875 3.71875 C 7.003906 3.71875 7.453125 3.617188 7.765625 3.421875 C 8.085938 3.234375 8.25 2.96875 8.25 2.625 C 8.25 2.300781 8.128906 2.0625 7.890625 1.90625 C 7.660156 1.75 7.1875 1.640625 6.46875 1.578125 L 6.8125 0.09375 Z M 8.28125 0.09375 "/></g></g></g><g fill="#ffffff" fill-opacity="1"><g transform="translate(140.96625, 200.519869)"><g><path d="M 10.9375 -7.421875 L 3.984375 -7.421875 L 3.984375 -1.734375 L 12.0625 -1.734375 L 12.0625 0 L 1.859375 0 L 1.859375 -16.0625 L 11.953125 -16.0625 L 11.953125 -14.3125 L 3.984375 -14.3125 L 3.984375 -9.15625 L 10.9375 -9.15625 Z M 10.9375 -7.421875 "/></g></g></g><g fill="#ffffff" fill-opacity="1"><g transform="translate(159.990633, 200.519869)"><g><path d="M 7.1875 -2.8125 L 11.765625 -16.0625 L 14.09375 -16.0625 L 8.125 0 L 6.25 0 L 0.3125 -16.0625 L 2.609375 -16.0625 Z M 7.1875 -2.8125 "/></g></g></g><g fill="#ffffff" fill-opacity="1"><g transform="translate(180.547688, 200.519869)"><g><path d="M 4.140625 0 L 2.015625 0 L 2.015625 -16.0625 L 4.140625 -16.0625 Z M 1.875 -18.625 C 1.875 -18.957031 1.972656 -19.238281 2.171875 -19.46875 C 2.367188 -19.695312 2.664062 -19.8125 3.0625 -19.8125 C 3.46875 -19.8125 3.769531 -19.695312 3.96875 -19.46875 C 4.175781 -19.238281 4.28125 -18.957031 4.28125 -18.625 C 4.28125 -18.289062 4.175781 -18.015625 3.96875 -17.796875 C 3.769531 -17.578125 3.46875 -17.46875 3.0625 -17.46875 C 2.664062 -17.46875 2.367188 -17.578125 2.171875 -17.796875 C 1.972656 -18.015625 1.875 -18.289062 1.875 -18.625 Z M 1.875 -18.625 "/></g></g></g><g fill="#ffffff" fill-opacity="1"><g transform="translate(192.879063, 200.519869)"><g><path d="M 5.953125 -7.46875 L 3.984375 -5.421875 L 3.984375 0 L 1.859375 0 L 1.859375 -16.0625 L 3.984375 -16.0625 L 3.984375 -8.125 L 11.125 -16.0625 L 13.6875 -16.0625 L 7.359375 -8.96875 L 14.171875 0 L 11.640625 0 Z M 5.953125 -7.46875 "/></g></g></g><g fill="#ffffff" fill-opacity="1"><g transform="translate(213.226611, 200.519869)"><g><path d="M 5.796875 -5.984375 L 0.40625 -5.984375 L 0.40625 -7.65625 L 5.796875 -7.65625 Z M 5.796875 -5.984375 "/></g></g></g><g fill="#ffffff" fill-opacity="1"><g transform="translate(225.646196, 200.519869)"><g><path d="M 10.734375 -4.1875 L 4 -4.1875 L 2.5 0 L 0.3125 0 L 6.4375 -16.0625 L 8.296875 -16.0625 L 14.4375 0 L 12.265625 0 Z M 4.640625 -5.9375 L 10.109375 -5.9375 L 7.375 -13.453125 Z M 4.640625 -5.9375 "/></g></g></g><g fill="#ffffff" fill-opacity="1"><g transform="translate(246.567116, 200.519869)"><g><path d="M 14.203125 0 L 12.078125 0 L 12.078125 -7.421875 L 3.984375 -7.421875 L 3.984375 0 L 1.859375 0 L 1.859375 -16.0625 L 3.984375 -16.0625 L 3.984375 -9.15625 L 12.078125 -9.15625 L 12.078125 -16.0625 L 14.203125 -16.0625 Z M 14.203125 0 "/></g></g></g><g fill="#ffffff" fill-opacity="1"><g transform="translate(268.855307, 200.519869)"><g><path d="M 4 -1.734375 L 11.609375 -1.734375 L 11.609375 0 L 1.859375 0 L 1.859375 -16.0625 L 4 -16.0625 Z M 4 -1.734375 "/></g></g></g><g fill="#ffffff" fill-opacity="1"><g transform="translate(287.196042, 200.519869)"><g><path d="M 10.734375 -4.1875 L 4 -4.1875 L 2.5 0 L 0.3125 0 L 6.4375 -16.0625 L 8.296875 -16.0625 L 14.4375 0 L 12.265625 0 Z M 4.640625 -5.9375 L 10.109375 -5.9375 L 7.375 -13.453125 Z M 4.640625 -5.9375 "/></g></g></g><g fill="#ffffff" fill-opacity="1"><g transform="translate(308.116985, 200.519869)"><g><path d="M 5.953125 -7.46875 L 3.984375 -5.421875 L 3.984375 0 L 1.859375 0 L 1.859375 -16.0625 L 3.984375 -16.0625 L 3.984375 -8.125 L 11.125 -16.0625 L 13.6875 -16.0625 L 7.359375 -8.96875 L 14.171875 0 L 11.640625 0 Z M 5.953125 -7.46875 "/></g></g></g><g fill="#ffffff" fill-opacity="1"><g transform="translate(328.464533, 200.519869)"><g><path d="M 4 -1.734375 L 11.609375 -1.734375 L 11.609375 0 L 1.859375 0 L 1.859375 -16.0625 L 4 -16.0625 Z M 4 -1.734375 "/></g></g></g><g fill="#ffffff" fill-opacity="1"><g transform="translate(346.805268, 200.519869)"><g><path d="M 4.140625 0 L 2.015625 0 L 2.015625 -16.0625 L 4.140625 -16.0625 Z M 4.140625 0 "/></g></g></g><g fill="#ffffff" fill-opacity="1"><g transform="translate(123.683096, 150.624746)"><g><path d="M 0.140625 -12.203125 C 0.140625 -13.597656 0.421875 -14.851562 0.984375 -15.96875 C 1.554688 -17.09375 2.367188 -17.984375 3.421875 -18.640625 C 4.484375 -19.296875 5.734375 -19.625 7.171875 -19.625 C 8.921875 -19.625 10.320312 -19.304688 11.375 -18.671875 C 12.4375 -18.035156 13.207031 -17.210938 13.6875 -16.203125 C 14.164062 -15.191406 14.40625 -14.125 14.40625 -13 C 14.40625 -12 14.148438 -11.015625 13.640625 -10.046875 C 13.140625 -9.085938 12.421875 -8.222656 11.484375 -7.453125 L 7.609375 -4.421875 L 14.328125 -4.421875 L 14.328125 0 L 0.171875 0 L 0.171875 -3.390625 L 8.28125 -10.796875 C 8.695312 -11.160156 9.03125 -11.539062 9.28125 -11.9375 C 9.53125 -12.332031 9.65625 -12.710938 9.65625 -13.078125 C 9.65625 -13.609375 9.441406 -14.078125 9.015625 -14.484375 C 8.597656 -14.890625 7.984375 -15.09375 7.171875 -15.09375 C 6.523438 -15.09375 5.957031 -14.828125 5.46875 -14.296875 C 4.988281 -13.765625 4.75 -13.066406 4.75 -12.203125 Z M 0.140625 -12.203125 "/></g></g></g><g fill="#ffffff" fill-opacity="1"><g transform="translate(162.174117, 150.624746)"><g><path d="M 7.78125 0.390625 C 6.488281 0.390625 5.351562 0.125 4.375 -0.40625 C 3.40625 -0.945312 2.59375 -1.675781 1.9375 -2.59375 C 1.289062 -3.507812 0.804688 -4.5625 0.484375 -5.75 C 0.160156 -6.9375 0 -8.191406 0 -9.515625 C 0 -10.878906 0.160156 -12.160156 0.484375 -13.359375 C 0.804688 -14.566406 1.289062 -15.632812 1.9375 -16.5625 C 2.59375 -17.5 3.40625 -18.226562 4.375 -18.75 C 5.351562 -19.269531 6.488281 -19.53125 7.78125 -19.53125 C 9.082031 -19.53125 10.222656 -19.269531 11.203125 -18.75 C 12.179688 -18.226562 12.992188 -17.5 13.640625 -16.5625 C 14.296875 -15.632812 14.789062 -14.566406 15.125 -13.359375 C 15.457031 -12.160156 15.625 -10.878906 15.625 -9.515625 C 15.625 -8.191406 15.457031 -6.9375 15.125 -5.75 C 14.789062 -4.5625 14.296875 -3.507812 13.640625 -2.59375 C 12.992188 -1.675781 12.179688 -0.945312 11.203125 -0.40625 C 10.222656 0.125 9.082031 0.390625 7.78125 0.390625 Z M 7.78125 -14.921875 C 6.769531 -14.921875 6.015625 -14.4375 5.515625 -13.46875 C 5.023438 -12.507812 4.78125 -11.191406 4.78125 -9.515625 C 4.78125 -8.523438 4.890625 -7.625 5.109375 -6.8125 C 5.328125 -6 5.660156 -5.351562 6.109375 -4.875 C 6.554688 -4.40625 7.113281 -4.171875 7.78125 -4.171875 C 8.476562 -4.171875 9.050781 -4.40625 9.5 -4.875 C 9.957031 -5.351562 10.296875 -6 10.515625 -6.8125 C 10.734375 -7.625 10.84375 -8.523438 10.84375 -9.515625 C 10.84375 -11.191406 10.585938 -12.507812 10.078125 -13.46875 C 9.578125 -14.4375 8.8125 -14.921875 7.78125 -14.921875 Z M 7.78125 -14.921875 "/></g></g></g><g fill="#ffffff" fill-opacity="1"><g transform="translate(201.796158, 150.624746)"><g><path d="M 5.578125 -19.453125 L 8.6875 -19.453125 L 8.6875 0 L 4.1875 0 L 4.1875 -11.140625 L 2.59375 -9.609375 L -0.578125 -12.75 Z M 5.578125 -19.453125 "/></g></g></g><g fill="#ffffff" fill-opacity="1"><g transform="translate(234.742391, 150.624746)"><g><path d="M 4.078125 -6.40625 C 4.171875 -5.707031 4.476562 -5.1875 5 -4.84375 C 5.53125 -4.5 6.085938 -4.328125 6.671875 -4.328125 C 7.316406 -4.328125 7.90625 -4.519531 8.4375 -4.90625 C 8.976562 -5.289062 9.25 -5.851562 9.25 -6.59375 C 9.25 -7.21875 9.085938 -7.71875 8.765625 -8.09375 C 8.441406 -8.476562 8.035156 -8.753906 7.546875 -8.921875 C 7.054688 -9.097656 6.554688 -9.1875 6.046875 -9.1875 C 5.140625 -9.1875 4.007812 -8.789062 2.65625 -8 L 0.171875 -9.109375 L 0.171875 -19.5625 L 12.859375 -19.5625 L 12.859375 -15.3125 L 4.578125 -15.3125 L 4.578125 -12.78125 C 5.023438 -12.90625 5.460938 -13 5.890625 -13.0625 C 6.328125 -13.125 6.753906 -13.15625 7.171875 -13.15625 C 8.367188 -13.15625 9.46875 -12.894531 10.46875 -12.375 C 11.46875 -11.863281 12.269531 -11.128906 12.875 -10.171875 C 13.488281 -9.222656 13.796875 -8.054688 13.796875 -6.671875 C 13.796875 -5.828125 13.644531 -4.992188 13.34375 -4.171875 C 13.050781 -3.359375 12.609375 -2.613281 12.015625 -1.9375 C 11.421875 -1.269531 10.679688 -0.738281 9.796875 -0.34375 C 8.910156 0.0507812 7.867188 0.25 6.671875 0.25 C 5.585938 0.25 4.535156 0.0507812 3.515625 -0.34375 C 2.492188 -0.738281 1.644531 -1.378906 0.96875 -2.265625 C 0.300781 -3.148438 -0.0546875 -4.300781 -0.109375 -5.71875 Z M 4.078125 -6.40625 "/></g></g></g></svg>